<svg width="20" height="24" viewBox="0 0 20 24" fill="none" xmlns="http://www.w3.org/2000/svg">
<path d="M15 2.50001H19C19.2652 2.50001 19.5196 2.62292 19.7071 2.84171C19.8946 3.06051 20 3.35725 20 3.66667V22.3333C20 22.6428 19.8946 22.9395 19.7071 23.1583C19.5196 23.3771 19.2652 23.5 19 23.5H1C0.734784 23.5 0.48043 23.3771 0.292893 23.1583C0.105357 22.9395 0 22.6428 0 22.3333V3.66667C0 3.35725 0.105357 3.06051 0.292893 2.84171C0.48043 2.62292 0.734784 2.50001 1 2.50001H5V0.166672H7V2.50001H13V0.166672H15V2.50001ZM18 9.50001V4.83334H15V7.16667H13V4.83334H7V7.16667H5V4.83334H2V9.50001H18ZM18 11.8333H2V21.1667H18V11.8333ZM4 14.1667H9V18.8333H4V14.1667Z" fill="white"/>
</svg>
