<svg width="28" height="29" viewBox="0 0 28 29" fill="none" xmlns="http://www.w3.org/2000/svg">
<g clip-path="url(#clip0_10_3889)">
<g filter="url(#filter0_dii_10_3889)">
<path d="M14 28.1826L6.57534 20.7579C5.1069 19.2895 4.10688 17.4185 3.70175 15.3817C3.29662 13.3449 3.50456 11.2338 4.29928 9.31514C5.09401 7.39652 6.43982 5.75665 8.16653 4.6029C9.89324 3.44915 11.9233 2.83334 14 2.83334C16.0767 2.83334 18.1068 3.44915 19.8335 4.6029C21.5602 5.75665 22.906 7.39652 23.7007 9.31514C24.4954 11.2338 24.7034 13.3449 24.2983 15.3817C23.8931 17.4185 22.8931 19.2895 21.4247 20.7579L14 28.1826ZM19.775 19.1083C20.917 17.9661 21.6948 16.5109 22.0098 14.9268C22.3249 13.3426 22.1631 11.7006 21.5449 10.2084C20.9268 8.71619 19.8801 7.44078 18.5371 6.54345C17.1941 5.64612 15.6152 5.16718 14 5.16718C12.3848 5.16718 10.8059 5.64612 9.46293 6.54345C8.11995 7.44078 7.07321 8.71619 6.45507 10.2084C5.83693 11.7006 5.67515 13.3426 5.9902 14.9268C6.30524 16.5109 7.08296 17.9661 8.225 19.1083L14 24.8833L19.775 19.1083ZM14 15.6666C13.3812 15.6666 12.7877 15.4208 12.3501 14.9832C11.9125 14.5456 11.6667 13.9521 11.6667 13.3333C11.6667 12.7144 11.9125 12.1209 12.3501 11.6833C12.7877 11.2458 13.3812 10.9999 14 10.9999C14.6188 10.9999 15.2123 11.2458 15.6499 11.6833C16.0875 12.1209 16.3333 12.7144 16.3333 13.3333C16.3333 13.9521 16.0875 14.5456 15.6499 14.9832C15.2123 15.4208 14.6188 15.6666 14 15.6666Z" fill="white"/>
</g>
</g>
<defs>
<filter id="filter0_dii_10_3889" x="-40.24" y="-31.857" width="102.447" height="106.796" filterUnits="userSpaceOnUse" color-interpolation-filters="sRGB">
<feFlood flood-opacity="0" result="BackgroundImageFix"/>
<feColorMatrix in="SourceAlpha" type="matrix" values="0 0 0 0 0 0 0 0 0 0 0 0 0 0 0 0 0 0 127 0" result="hardAlpha"/>
<feMorphology radius="3.01655" operator="dilate" in="SourceAlpha" result="effect1_dropShadow_10_3889"/>
<feOffset dx="-3.01655" dy="6.0331"/>
<feGaussianBlur stdDeviation="18.8534"/>
<feColorMatrix type="matrix" values="0 0 0 0 0 0 0 0 0 0 0 0 0 0 0 0 0 0 0.1 0"/>
<feBlend mode="normal" in2="BackgroundImageFix" result="effect1_dropShadow_10_3889"/>
<feBlend mode="normal" in="SourceGraphic" in2="effect1_dropShadow_10_3889" result="shape"/>
<feColorMatrix in="SourceAlpha" type="matrix" values="0 0 0 0 0 0 0 0 0 0 0 0 0 0 0 0 0 0 127 0" result="hardAlpha"/>
<feOffset dx="-4.52482" dy="3.01655"/>
<feGaussianBlur stdDeviation="1.50827"/>
<feComposite in2="hardAlpha" operator="arithmetic" k2="-1" k3="1"/>
<feColorMatrix type="matrix" values="0 0 0 0 1 0 0 0 0 1 0 0 0 0 1 0 0 0 0.25 0"/>
<feBlend mode="normal" in2="shape" result="effect2_innerShadow_10_3889"/>
<feColorMatrix in="SourceAlpha" type="matrix" values="0 0 0 0 0 0 0 0 0 0 0 0 0 0 0 0 0 0 127 0" result="hardAlpha"/>
<feOffset dx="1.50827" dy="-2.26241"/>
<feGaussianBlur stdDeviation="2.26241"/>
<feComposite in2="hardAlpha" operator="arithmetic" k2="-1" k3="1"/>
<feColorMatrix type="matrix" values="0 0 0 0 0 0 0 0 0 0 0 0 0 0 0 0 0 0 0.25 0"/>
<feBlend mode="normal" in2="effect2_innerShadow_10_3889" result="effect3_innerShadow_10_3889"/>
</filter>
<clipPath id="clip0_10_3889">
<rect width="28" height="28" fill="white" transform="translate(0 0.5)"/>
</clipPath>
</defs>
</svg>
