<svg width="1440" height="265" viewBox="0 0 1440 265" fill="none" xmlns="http://www.w3.org/2000/svg">
<g id="Group">
<g id="Group_2" >
<path id="Vector" opacity="0.3" fill-rule="evenodd" clip-rule="evenodd" d="M0 190.015C25.5417 192.56 53.615 193.996 85.6287 193.996C366.209 193.996 366.209 83.6771 646.789 83.6771C927.363 83.6771 927.363 193.996 1207.95 193.996C1316.88 193.996 1380.9 177.368 1438.08 157.023C1438.08 203.735 1438.08 238.516 1438.08 261.364H0C0 238.516 0 214.733 0 190.015Z" fill="red" fill-opacity=".05"/>
<path id="Vector_2" opacity="0.3" fill-rule="evenodd" clip-rule="evenodd" d="M0 164.492C145.626 127.951 188.952 43.227 409.026 43.227C689.6 43.227 689.6 180.943 970.186 180.943C1216.78 180.943 1243.99 74.5678 1438.08 48.7988C1440.64 103.921 1440.64 176.002 1438.08 265.041H0C0 229.935 0 196.419 0 164.492Z" fill="white" fill-opacity="0.05"/>
<path id="Vector_3" opacity="0.5" fill-rule="evenodd" clip-rule="evenodd" d="M0 11.2087C169.353 47.6031 206.819 162.375 437.8 162.375C712.308 162.375 712.308 0.276306 986.816 0.276306C1225.05 0.276306 1254.48 122.371 1438.08 154.634C1438.08 200.488 1438.08 236.064 1438.08 261.364H0C2.55659 142.906 2.55659 59.521 0 11.2087Z" fill="white" fill-opacity="0.05"/>
<path id="Vector_4" fill-rule="evenodd" clip-rule="evenodd" d="M0 135.159C292.404 135.159 292.404 215.798 584.802 215.798C877.206 215.798 877.206 135.159 1169.61 135.159C1300.08 135.159 1372.34 151.215 1438.33 168.997C1438.16 202.824 1438.08 234.838 1438.08 265.041H0L0 135.159Z" fill="white" fill-opacity="0.05"/>
</g>
</g>
</svg>
